<svg width="300" height="301" viewBox="0 0 300 301" fill="none" xmlns="http://www.w3.org/2000/svg">
<rect y="0.950378" width="300" height="300" rx="35" fill="black"/>
<path d="M50 155.089C50.1297 187.305 76.3769 213.708 108.62 213.708C140.943 213.708 167.239 187.412 167.239 155.089V146.814C167.239 133.504 178.068 122.675 191.378 122.675C204.689 122.675 215.516 133.504 215.516 146.814C215.516 150.622 218.604 153.71 222.413 153.71H243.103C246.914 153.71 250 150.622 250 146.814C250 114.491 223.704 88.1932 191.38 88.1932C159.057 88.1932 132.759 114.491 132.759 146.814V155.089C132.759 168.4 121.93 179.226 108.622 179.226C95.3129 179.226 84.4838 168.4 84.4838 155.089C84.4838 151.281 81.3955 148.192 77.587 148.192H56.8968C53.0882 148.194 50 151.281 50 155.089Z" fill="white"/>
</svg>
